<?xml version="1.0" encoding="UTF-8" standalone="no"?>
<!-- Created with Inkscape (http://www.inkscape.org/) -->

<svg
   version="1.1"
   id="svg2"
   width="512"
   height="512"
   viewBox="0 0 512 512"
   xmlns="http://www.w3.org/2000/svg"
   xmlns:svg="http://www.w3.org/2000/svg">
  <defs
     id="defs6">
    <clipPath
       clipPathUnits="userSpaceOnUse"
       id="clipPath570">
      <rect
         style="fill:#262425;stroke:#000000;stroke-width:23.956;stroke-linejoin:round"
         id="rect572"
         width="96.914284"
         height="96.914284"
         x="-104.8381"
         y="175.54286" />
    </clipPath>
    <clipPath
       clipPathUnits="userSpaceOnUse"
       id="clipPath1197">
      <path
         style="fill:#262425;stroke:#000000;stroke-width:23.956;stroke-linejoin:round"
         d="m -87.161905,206.01905 v 38.4 h 48.152381 v -36.57143 h -48.152381 z"
         id="path1199" />
    </clipPath>
    <clipPath
       clipPathUnits="userSpaceOnUse"
       id="clipPath1197-6">
      <path
         style="fill:#262425;stroke:#000000;stroke-width:23.956;stroke-linejoin:round"
         d="m -87.161905,206.01905 v 38.4 h 48.152381 v -36.57143 h -48.152381 z"
         id="path1199-6" />
    </clipPath>
    <clipPath
       clipPathUnits="userSpaceOnUse"
       id="clipPath1197-6-5">
      <path
         style="fill:#262425;stroke:#000000;stroke-width:23.956;stroke-linejoin:round"
         d="m -87.161905,206.01905 v 38.4 h 48.152381 v -36.57143 h -48.152381 z"
         id="path1199-6-1" />
    </clipPath>
    <clipPath
       clipPathUnits="userSpaceOnUse"
       id="clipPath9563">
      <rect
         style="fill:#ffffff;fill-opacity:1;stroke:#54864f;stroke-width:23.956;stroke-linejoin:round;stroke-opacity:1"
         id="rect9565"
         width="21.942858"
         height="24.380953"
         x="193.21904"
         y="-49.371429" />
    </clipPath>
  </defs>
  <g
     id="layer1" />
  <g
     id="g8" />
  <g
     id="layer2" />
  <g
     id="layer3">
    <path
       style="fill:#4b9244;fill-opacity:1;stroke-width:3.91082"
       d="M 209.33698,506.23316 C 160.69454,502.87313 119.59358,491.20675 100.50059,475.3403 L 85.410963,462.80065 85.139907,336.80281 C 84.990826,267.50393 83.370076,204.36642 81.53823,196.49728 c -2.651052,-11.38822 -1.751474,-16.32733 4.408849,-24.20663 4.256713,-5.44452 10.485088,-14.76431 13.840844,-20.71069 3.355717,-5.94639 13.031717,-15.86296 21.502217,-22.03688 11.93275,-8.6974 15.40091,-13.87397 15.40091,-22.98717 0,-7.730888 3.5188,-14.759491 10.26727,-20.508429 9.13389,-7.781013 10.26728,-11.748618 10.26728,-35.942271 0,-24.724982 0.91091,-27.736949 10.02628,-33.152856 17.61692,-10.4671061 51.94793,-15.9017349 66.03734,-10.4537552 6.72921,2.6020067 27.9947,4.8065102 47.25658,4.8988942 48.54066,0.232794 53.27695,3.622019 53.27695,38.124128 0,23.335296 1.17864,27.352037 10.26728,34.989966 6.77085,5.690135 10.26727,12.628935 10.26727,20.375983 0,9.08363 4.42363,15.70313 19.50782,29.19124 34.65529,30.98846 46.08076,53.94074 35.88967,72.09759 -5.97843,10.65134 -6.61804,26.4352 -5.41977,133.73868 1.35865,121.66202 1.35865,121.66202 -8.90863,131.62835 -28.23722,27.4096 -99.40998,40.67723 -186.08941,34.68973 z m 181.9825,-55.60212 c 72.63542,-130.58873 36.31773,-65.29436 0,0 z m -7.58632,-262.94588 c 77.693,44.70853 38.84652,22.35427 0,0 z m -15.0724,-40.51379 c 87.74125,71.71772 43.87063,35.85886 0,0 z M 307.2684,45.033901 c 128.66954,139.809369 64.33476,69.904689 0,0 z"
       id="path397" />
    <path
       style="fill:#a7b1b0;fill-opacity:1;stroke-width:3.91082"
       d="m 84.916803,173.28628 c 4.256689,-5.44452 10.485064,-14.76434 13.840819,-20.71073 3.355718,-5.94638 13.031758,-15.86295 21.502258,-22.03684 11.93271,-8.69741 15.40091,-13.87399 15.40091,-22.9872 0,-7.730894 3.51876,-14.759501 10.26728,-20.508447 9.13389,-7.780987 10.26727,-11.748606 10.26727,-35.942263 0,-24.724982 0.91087,-27.736964 10.02624,-33.152849 17.61692,-10.4671058 51.94793,-15.9017249 66.03734,-10.4537735 6.72921,2.6020295 27.99472,4.8065105 47.25662,4.8989055 48.54062,0.232756 53.27691,3.622023 53.27691,38.124128 0,23.335311 1.17864,27.352052 10.26728,34.989958 6.77085,5.690143 10.26727,12.628962 10.26727,20.376021 0,9.0836 4.42363,15.70312 19.50782,29.19125 34.65533,30.98843 46.0808,53.94073 35.88971,72.09758 -35.071,35.81357 -373.998103,56.6194 -323.807727,-33.88574 z"
       id="path399" />
    <path
       style="fill:#ffffff;fill-opacity:1;stroke-width:3.91082"
       d="m 165.73257,111.2311 c 0,-26.440254 -16.03017,-84.154216 -5.23639,-89.11334 6.2117,-2.853928 21.10463,-7.428501 33.09537,-10.165715 18.53822,-4.2318444 23.14855,-4.1851442 30.80182,0.31208 5.75255,3.380217 22.94329,5.654115 47.63838,6.301401 50.0799,1.312634 53.76754,4.009069 53.76754,39.315144 0,23.176717 -8.31239,15.871082 0.88007,22.427882 C 318.1277,133.49079 212.88983,120.36145 165.73257,111.2311 Z"
       id="path405" />
    <path
       style="fill:#ffffff;fill-opacity:1"
       d="m -95.423297,226.49726 c -0.303326,-116.27568 76.803096,-92.83052 77.721488,0.83572 2.643185,61.74816 -77.595607,63.69394 -77.721488,-0.83572 z m 3.146567,27.66688 c 153.560435,29.76968 76.780218,14.88484 0,0 z m 56.405744,-23.42191 c 0,-28.34483 0,-28.34483 2.25,-28.9478 3.277481,-0.87834 4.750001,-0.76372 4.750001,0.36971 0,0.55 -1.35,1 -3.000001,1 h -3 v 28 c -1.186255,54.84438 13.003303,4.73231 12.999997,-7.03875 3.284223,-36.91102 -6.105831,-22.8881 -28.567009,-22.18254 -36.078687,0.87338 -41.432995,-19.72484 -41.432995,21.15044 0,27.69667 0,27.69667 2.816342,30.39489 37.304485,19.10095 53.183665,14.11459 53.183665,-22.74595 z m -28.30527,-6.7627 c -2.937821,-2.21358 -10.840446,13.18052 -11.253515,10.72299 -0.468671,-2.78833 -1.244105,-3.68468 -3.304261,-4.14064 -5.694227,-1.26028 -6.136961,-1.54921 -6.136961,-4.00497 0,-7.22555 7.748899,-14.84835 16.283072,-16.01809 11.388725,-1.561 22.682093,8.57076 22.711353,20.37532 0.005,2.08395 -0.442248,2.48658 -5.994425,2.25 -5.231365,-0.22291 -11.795621,-11.81877 -12.4,-9.07606 0.380036,-1.27242 5.75356,2.10823 0.09474,-0.10855 z m -0.133002,-0.48943 c 4.753511,-0.31695 4.350759,0.6931 -0.05612,0.6931 -2.911912,0 -9.724662,4.66263 -9.724662,7.41844 -0.977159,5.18784 5.092109,-7.79893 8.637926,-8.03534 z"
       id="path399-7-7-3"
       clip-path="url(#clipPath1197-6-5)"
       transform="matrix(-3.9363298,0,0,-3.5694208,-21.682957,1178.654)" />
    <path
       style="fill:#e70d12;fill-opacity:1"
       d="m -65.182286,271.99292 c -34.207398,-2.52937 -30.182394,-15.44748 -30.241011,-45.49566 -0.303326,-116.27568 76.803096,-92.83052 77.721488,0.83572 0.33082,32.66884 0.33082,32.66884 -2.16918,35.34501 -6.875536,7.36006 -24.205537,10.9227 -45.311297,9.31493 z m 28.8113,-5.12476 c 9.123771,-2.54092 15.499997,-6.57464 15.499997,-9.80559 0,-1.59277 -0.59892,-1.47655 -5.396636,1.0472 -7.672891,4.03617 -17.306571,5.39136 -34.032479,4.78742 -25.481748,-17.87274 -48.149706,-1.21988 -10.570889,5.26881 7.445256,1.20428 28.337657,0.41834 34.500007,-1.29784 z m -3.25,-6.82122 3.75,-0.95989 v -28.34482 c 8.189654,-39.66254 1,-35.55753 1,0.42191 0,15.4 0.24293,28 0.53984,28 0.29691,0 2.43441,-0.95243 4.750001,-2.11651 8.239566,-4.14216 7.710156,-1.88158 7.710156,-32.92224 6.830139,-40.17176 -70.000004,-43.11552 -70.000004,-1.0321 -4.285762,33.07133 12.900561,39.53371 40.5,38.33535 4.400005,-0.232 9.687507,-0.85377 11.750007,-1.3817 z M -71.566732,240.2081 c -2.278295,-1.38917 -3.38731,-2.96973 -3.863039,-5.50558 -0.521336,-2.77896 -1.244105,-3.68468 -3.304261,-4.14064 -5.694227,-1.26028 -6.136961,-1.54921 -6.136961,-4.00497 0,-7.22555 7.748899,-14.84835 16.283072,-16.01809 11.388725,-1.561 22.682093,8.57076 22.711353,20.37532 0.005,2.08395 -0.43721,2.25 -5.994425,2.25 -5.379969,0 -6,0.21161 -6,2.04775 0,2.80118 -4.718048,6.95307 -7.896023,6.94851 -1.432187,-0.002 -4.04206,-0.88059 -5.799716,-1.9523 z m 7.866998,-2.69895 c 3.532331,-3.19671 1.30314,-11.34501 -3.10374,-11.34501 -2.911912,0 -6.067519,2.98644 -6.067519,5.74225 0,2.90558 3.505349,7.25775 5.845573,7.25775 0.82332,0 2.319879,-0.74474 3.325686,-1.65499 z"
       id="path399-7-7"
       clip-path="url(#clipPath1197-6)"
       transform="matrix(4.1069095,0,0,3.7241006,507.50987,-512.91724)" />
    <path
       style="fill:#a7b1b0;fill-opacity:1;stroke:#a7b1b0;stroke-width:48.7492;stroke-linejoin:round;stroke-opacity:1"
       d="m 211.25129,85.124529 0.71107,-0.408653 0.18358,-0.04353 -1.01334,0.492854 0.87334,-0.0324 z"
       id="path9709-0" />
    <path
       style="fill:#191819;stroke-width:3.91082"
       d="M 187.31947,504.23004 C 167.50737,501.84725 131.32164,491.82629 114.60545,484.0932 84.4342,470.13572 84.871217,472.45181 86.201075,333.55725 87.024387,247.56464 86.026942,208.96203 82.936493,207.23013 67.800355,198.74745 96.33586,145.47728 125.68852,127.42057 c 12.12766,-7.46053 14.40145,-11.04427 14.40145,-22.69843 0,-9.109598 2.80707,-16.142785 8.21382,-20.579716 6.78913,-5.571366 8.21382,-11.470043 8.21382,-34.008188 0,-24.214624 1.04061,-27.886028 9.29398,-32.789775 16.39708,-9.7423218 50.27173,-14.457667 67.28512,-9.3661132 8.28056,2.4780912 30.50395,4.3147062 49.3853,4.0813912 45.21976,-0.558839 50.63279,3.693823 50.63279,39.778719 0,22.299021 1.26041,26.493215 10.26728,34.166017 6.45926,5.502544 10.26727,12.828037 10.26727,19.751175 0,8.0324 4.71424,15.19117 17.45437,26.50532 9.5999,8.5254 22.73014,23.45904 29.17831,33.18591 9.89671,14.92884 11.21832,19.83832 8.47975,31.50008 -1.78429,7.59821 -3.4218,70.61174 -3.63893,140.03013 l -0.39468,126.21523 -15.32538,12.0129 c -26.45667,20.73829 -80.1066,31.9389 -148.69343,31.04306 -22.58799,-0.29495 -46.61341,-1.20325 -53.38981,-2.01824 z m 154.6509,-19.31076 c 29.75472,-8.67269 52.74808,-24.93606 52.74808,-37.30916 0,-9.70091 -2.1517,-9.75133 -15.31964,-0.359 -29.07651,20.73966 -126.5178,32.10808 -194.13279,22.64935 -31.47417,-4.40297 -82.13824,-22.85246 -82.13824,-29.91094 0,-2.15573 -1.84815,-3.91961 -4.106946,-3.91961 -9.997162,0 -3.315262,18.47921 10.723556,29.6565 28.80943,22.93722 65.96579,30.21575 145.33907,28.47026 46.66965,-1.02628 65.46311,-3.03298 86.88691,-9.2774 z m -46.43853,-18.90063 c 38.47482,-5.04415 69.37147,-14.88449 83.0115,-26.43855 12.0682,-10.22258 12.0682,-10.22258 12.0682,-114.86528 0,-57.55348 -1.47849,-104.64272 -3.28553,-104.64272 -1.80704,0 -5.04123,1.5191 -7.18709,3.37571 -10.60988,9.17995 -63.87471,19.5163 -110.68128,21.47842 -66.67311,2.7949 -115.5933,-4.04326 -163.24967,-22.81936 -6.746957,-2.65822 -7.187136,3.4798 -7.187136,100.22438 0,63.9636 1.613856,105.79039 4.254386,110.26442 6.39914,10.84234 43.30621,26.22239 75.75692,31.56964 34.8422,5.74134 81.21633,6.47908 116.4997,1.85334 z m 50.7424,-238.09034 c 32.17657,-9.40763 52.55111,-23.32571 52.55111,-35.89824 0,-12.76558 -6.32882,-14.29381 -17.44615,-4.21274 -5.36949,4.869 -20.7357,12.80584 -34.14718,17.63741 -22.38525,8.06447 -30.44549,8.79484 -98.30892,8.90798 -66.88717,0.11135 -76.55233,-0.69998 -101.53031,-8.52469 -18.44934,-5.77951 -31.16257,-12.4808 -38.32884,-20.20358 -8.60562,-9.27391 -11.454373,-10.5077 -14.427036,-6.24848 -14.931409,21.39358 12.138876,41.69488 72.069686,54.0485 38.99959,8.03903 144.28122,4.81072 179.56764,-5.50616 z m -28.99578,-20.6781 c 32.16985,-6.18301 58.99746,-17.77078 65.10657,-28.12173 5.37512,-9.10729 -1.77591,-23.04626 -19.78787,-38.57111 -11.91037,-10.26582 -12.4648,-10.37359 -16.67447,-3.24093 -7.40303,12.54333 -35.97174,20.30919 -82.13365,22.32654 -57.73754,2.52315 -96.65055,-3.84905 -112.77091,-18.46681 l -12.03567,-10.91381 -12.13362,10.45694 c -18.3509,15.81506 -24.99342,29.19311 -18.89314,38.0507 7.47363,10.85173 33.1097,22.53289 61.89581,28.2031 33.97305,6.69187 113.27561,6.84095 147.42695,0.27707 z M 302.3567,151.00943 c 32.5872,-7.69671 38.97192,-13.48534 38.97192,-35.33333 0,-21.316904 -9.862,-32.44001 -13.62705,-15.36963 -3.70248,16.7868 -20.57363,21.07696 -82.88538,21.07696 -62.88618,0 -79.17011,-4.23229 -82.99426,-21.570772 -2.29654,-10.412399 -2.85278,-10.714387 -7.99324,-4.339695 -8.16232,10.122147 -7.05481,36.534957 1.83793,43.832627 19.62868,16.10796 100.66785,22.57375 146.69008,11.70384 z m 4.06317,-38.97993 c 12.13666,-5.53726 12.33859,-6.11464 13.51498,-38.641757 1.18755,-32.835246 1.14143,-33.007337 -8.21382,-30.661414 -39.62088,9.935342 -94.36666,9.95616 -133.64211,0.05065 -9.0593,-2.284736 -9.24058,-1.709846 -9.24058,29.30275 0,34.021441 1.96224,37.702721 23.35221,43.809531 18.79256,5.36524 100.02594,2.62036 114.22932,-3.85988 z M 194.19571,99.729834 c -10.90265,-10.523601 -11.43253,-21.689349 -1.41922,-29.906576 15.67812,-12.865986 45.87933,-2.214276 45.87933,16.181217 0,10.079166 -14.26044,22.344605 -25.97902,22.344605 -5.25323,0 -13.56972,-3.87865 -18.48109,-8.619246 z m 28.30248,1.040026 c 12.00177,-5.824453 10.69688,-24.95985 -2.06155,-30.231166 -20.89538,-8.633135 -36.45149,8.250336 -22.46142,24.378038 9.29323,10.713198 12.78904,11.547578 24.52297,5.853128 z M 206.58773,85.725167 c 0.80939,-2.201874 3.22734,-4.003408 5.3732,-4.003408 2.14586,0 4.5638,1.801534 5.37319,4.003408 0.80943,2.201875 -1.60851,4.003408 -5.37319,4.003408 -3.76468,0 -6.18263,-1.801533 -5.3732,-4.003408 z m 103.21447,-48.4917 c 22.34087,-11.027062 1.71299,-15.090205 -97.84127,-19.272034 -18.77893,-0.788839 -44.15926,7.454532 -41.94219,13.622536 3.30898,9.205679 30.02583,13.4014 78.90436,12.391461 34.78367,-0.718677 52.6946,-2.702208 60.8791,-6.741963 z"
       id="path395-6" />
  </g>
</svg>
