<?xml version="1.0" encoding="UTF-8" standalone="no"?>
<svg
   height="48"
   viewBox="0 96 960 960"
   width="48"
   version="1.1"
   id="svg4"
   sodipodi:docname="search.svg"
   inkscape:version="1.2.2 (732a01da63, 2022-12-09)"
   xmlns:inkscape="http://www.inkscape.org/namespaces/inkscape"
   xmlns:sodipodi="http://sodipodi.sourceforge.net/DTD/sodipodi-0.dtd"
   xmlns="http://www.w3.org/2000/svg"
   xmlns:svg="http://www.w3.org/2000/svg">
  <defs
     id="defs8" />
  <sodipodi:namedview
     id="namedview6"
     pagecolor="#ffffff"
     bordercolor="#666666"
     borderopacity="1.0"
     inkscape:showpageshadow="2"
     inkscape:pageopacity="0.0"
     inkscape:pagecheckerboard="0"
     inkscape:deskcolor="#d1d1d1"
     showgrid="false"
     inkscape:zoom="10.9375"
     inkscape:cx="20.845714"
     inkscape:cy="23.954286"
     inkscape:window-width="1366"
     inkscape:window-height="705"
     inkscape:window-x="-8"
     inkscape:window-y="-8"
     inkscape:window-maximized="1"
     inkscape:current-layer="svg4" />
  <path
     d="M796 935 533 672q-30 26-69.959 40.5T378 727q-108.162 0-183.081-75Q120 577 120 471t75-181q75-75 181.5-75t181 75Q632 365 632 471.15 632 514 618 554q-14 40-42 75l264 262-44 44ZM377 667q81.25 0 138.125-57.5T572 471q0-81-56.875-138.5T377 275q-82.083 0-139.542 57.5Q180 390 180 471t57.458 138.5Q294.917 667 377 667Z"
     id="path2"
     style="fill-opacity:1;fill:#262425" />
</svg>
