<?xml version="1.0" encoding="UTF-8" standalone="no"?>
<!-- Created with Inkscape (http://www.inkscape.org/) -->

<svg
   version="1.1"
   id="svg2"
   width="196.02286"
   height="188.70857"
   viewBox="0 0 196.02286 188.70858"
   sodipodi:docname="equipables.svg"
   inkscape:version="1.2.2 (732a01da63, 2022-12-09)"
   xmlns:inkscape="http://www.inkscape.org/namespaces/inkscape"
   xmlns:sodipodi="http://sodipodi.sourceforge.net/DTD/sodipodi-0.dtd"
   xmlns="http://www.w3.org/2000/svg"
   xmlns:svg="http://www.w3.org/2000/svg">
  <defs
     id="defs6">
    <clipPath
       clipPathUnits="userSpaceOnUse"
       id="clipPath2940">
      <rect
         style="fill:#ff9701;fill-opacity:1;stroke:#000000;stroke-width:23.956;stroke-linejoin:round"
         id="rect2942"
         width="288.67047"
         height="262.33905"
         x="3.9009523"
         y="45.836189" />
    </clipPath>
    <clipPath
       clipPathUnits="userSpaceOnUse"
       id="clipPath2940-7">
      <rect
         style="fill:#ff9701;fill-opacity:1;stroke:#000000;stroke-width:23.956;stroke-linejoin:round"
         id="rect2942-8"
         width="288.67047"
         height="262.33905"
         x="3.9009523"
         y="45.836189" />
    </clipPath>
  </defs>
  <sodipodi:namedview
     id="namedview4"
     pagecolor="#ffffff"
     bordercolor="#666666"
     borderopacity="1.0"
     inkscape:showpageshadow="2"
     inkscape:pageopacity="0.0"
     inkscape:pagecheckerboard="0"
     inkscape:deskcolor="#d1d1d1"
     showgrid="false"
     inkscape:zoom="2.0507812"
     inkscape:cx="64.853335"
     inkscape:cy="57.05143"
     inkscape:window-width="1366"
     inkscape:window-height="705"
     inkscape:window-x="-8"
     inkscape:window-y="-8"
     inkscape:window-maximized="1"
     inkscape:current-layer="layer3" />
  <g
     inkscape:groupmode="layer"
     id="layer3"
     inkscape:label="fondo"
     transform="translate(-166.94319,-129.24422)" />
  <g
     inkscape:groupmode="layer"
     id="layer2"
     inkscape:label="cafe"
     transform="translate(-166.94319,-129.24422)" />
  <g
     inkscape:groupmode="layer"
     inkscape:label="naranja"
     id="g8"
     style="display:inline"
     transform="translate(-166.94319,-129.24422)" />
  <g
     inkscape:groupmode="layer"
     id="layer1"
     inkscape:label="amarillo"
     style="display:inline"
     transform="translate(-161.70242,-62.077264)">
    <g
       id="g913"
       transform="translate(140.43429,100.93715)">
      <path
         style="fill:#603749;fill-opacity:1"
         d="m 147.58909,176.17088 c -14.02166,-5.77331 -15.76616,-7.08561 -16.79398,-12.63329 -0.83757,-4.52077 -0.18867,-17.99316 1.23323,-25.60421 l 0.80119,-4.28859 -4.12022,-1.07092 c -2.26612,-0.589 -5.85314,-1.5202 -7.97116,-2.06932 -2.11802,-0.54913 -3.93292,-0.85633 -4.03312,-0.68268 -0.1002,0.17364 -0.84228,1.63134 -1.64906,3.23932 -3.22257,6.42283 -21.281385,17.53445 -37.966863,23.36107 -14.35701,5.01352 -15.5417,5.02144 -27.57675,0.18449 -14.771221,-5.93663 -16.686021,-7.39138 -17.764511,-13.49645 -1.2426,-7.03396 0.82631,-25.88971 4.38813,-39.99296 2.89541,-11.464575 9.919781,-28.479765 11.757271,-28.479765 2.35382,0 19.22837,3.20397 23.87481,4.5331 l 5.17896,1.48147 0.70062,5.60759 c 0.52683,4.21658 0.17236,7.76162 -1.42895,14.291015 -1.17127,4.77588 -2.1197,11.58669 -2.10762,15.13512 0.0429,12.60519 6.95332,20.97368 17.293138,20.94196 4.20608,-0.0129 12.996895,-4.1699 15.066455,-7.12462 1.59398,-2.27572 1.55988,-2.37111 -1.10212,-3.08304 -1.90884,-0.5105 -3.99245,-0.13174 -6.828935,1.24138 -2.24507,1.08682 -4.88436,1.97604 -5.8651,1.97604 -3.66979,0 -8.31439,-3.17118 -10.671618,-7.28622 -3.28069,-5.72716 -3.33093,-16.92755 -0.10805,-24.090905 11.798625,-30.406129 -4.785382,-36.809068 28.245613,-8.02214 1.9622,3.84874 1.98027,3.85723 16.20651,7.61532 7.83317,2.06926 14.72128,3.767155 15.30692,3.773115 0.58563,0.006 1.81585,-1.56418 2.73382,-3.489175 0.91797,-1.925 2.06737,-3.5 2.55422,-3.5 2.3199,0 19.23319,3.26369 23.8317,4.59871 l 5.18453,1.505135 0.69505,5.56295 c 0.5204,4.16515 0.15994,7.74484 -1.43453,14.24638 -3.71068,15.1304 -2.35124,25.9589 3.9885,31.77023 10.54195,9.66328 27.6762,1.98491 32.50018,-14.56432 2.57262,-8.82569 2.70046,-8.94048 3.47358,-3.11907 1.14067,8.58901 0.0433,16.98641 -2.70035,20.66284 -4.58569,6.14485 -21.09676,15.7121 -36.47819,21.1371 -14.12218,4.98087 -15.70468,4.96602 -28.4133,-0.26666 z"
         id="path335"
         sodipodi:nodetypes="ssscsssssssssscsssssssssccscssscssssscss"
         transform="translate(-5.240774,-67.166961)" />
      <path
         style="display:inline;fill:#ff9701;fill-opacity:1"
         d="m 111.70028,162.47488 c 1.19525,-3.0978 0.41142,-12.26375 -0.92301,-17.18386 -0.88077,-3.24743 -9.21463,-5.30543 -21.532057,-7.57721 l -9.991594,-1.65452 5.199157,-3.56767 c 9.971807,-6.84267 17.487794,-8.11379 28.306274,-6.41033 8.17478,1.28718 16.23013,5.12903 19.12823,8.81337 1.123,1.42766 3.10553,5.05139 3.95864,8.12721 0.85311,3.07583 1.93848,8.05361 3.35369,10.75279 l 2.29019,4.368 c 0.37706,0.10958 -29.78952,4.33222 -29.78952,4.33222 z"
         id="path331"
         clip-path="url(#clipPath2940)"
         transform="translate(-34.956824,-132.07844)"
         sodipodi:nodetypes="csscssssscc" />
      <path
         style="display:inline;fill:#ff9701;fill-opacity:1"
         d="m 213.34051,212.12738 c -5.20317,-5.70094 -6.88239,-16.01483 -3.21696,-26.43493 1.93253,-5.4938 1.784,-15.64184 0.43833,-20.60341 -0.88077,-3.24743 -10.57104,-5.21129 -24.1977,-7.63383 l -7.85196,-1.39592 4.94056,-3.56767 c 9.79727,-7.07478 17.10254,-8.04734 27.94056,-6.36503 8.6551,1.34348 17.23244,5.52788 20.1227,9.81674 1.19775,1.77734 2.70403,5.59412 3.34729,8.48172 0.64326,2.8876 2.31131,7.60181 3.70677,10.476 5.43276,11.18969 2.24605,28.9239 -7.57403,36.49844 -6.76035,5.21448 -13.10704,5.71154 -17.65556,0.72789 z"
         id="path331-8"
         clip-path="url(#clipPath2940-7)"
         transform="matrix(1.0078046,0,0,1,-36.304981,-132.18331)"
         sodipodi:nodetypes="sssscsssssss" />
      <path
         style="fill:#ffd400;fill-opacity:1"
         d="M 127.62477,66.55594 C 127.26915,66.20033 113.8511,63.185563 112.14943,62.628639 L 101.2672,60.08984 c 0,0.0531 -4.56157,-1.157986 -8.080864,0.79424 -4.601514,2.552556 -8.533443,1.811477 -12.727278,-0.7846 -7.272153,-4.501624 -9.403886,-16.275921 -3.83064,-29.770961 10.550841,-16.423845 34.797672,-2.73719 34.958162,-2.73719 21.43878,6.13694 23.36047,6.740192 24.91298,6.863793 -5.36548,9.614156 -6.99857,19.839917 -8.87479,32.100818 z"
         id="path337"
         sodipodi:nodetypes="cccsscccc" />
    </g>
  </g>
</svg>
