<?xml version="1.0" encoding="UTF-8" standalone="no"?>
<!-- Created with Inkscape (http://www.inkscape.org/) -->

<svg
   version="1.1"
   id="svg2"
   width="510.89444"
   height="511.11697"
   viewBox="0 0 510.89444 511.11698"
   xml:space="preserve"
   xmlns="http://www.w3.org/2000/svg"
   xmlns:svg="http://www.w3.org/2000/svg"><defs
     id="defs6" /><g
     id="g8"
     transform="translate(-0.5527883,-0.4415055)"><path
       style="fill:#fdb7c7"
       d="M 237.18906,510.86769 C 134.07878,502.89427 45.834218,434.1128 13.503238,336.5177 -0.98673257,292.77793 -3.3849126,244.97707 6.6494776,199.90761 25.963838,113.15716 90.901128,41.387385 175.40881,13.391955 219.14858,-1.0980154 266.94944,-3.4961954 312.0189,6.5381949 407.91748,27.889315 484.09127,104.06131 505.39287,199.90761 c 8.07409,36.32928 8.07249,75.72198 -0.005,112 -15.14466,68.02224 -58.5305,127.62286 -119.39283,164.014 -43.50073,26.0102 -98.21126,38.85856 -148.80643,34.94608 z m 80.73618,-76.26652 c 1.87348,-0.65646 4.34848,-2.46367 5.5,-4.01602 2.05149,-2.76561 2.09923,-3.84822 2.37017,-53.75 l 0.2765,-50.92754 h 49.57237 c 54.86195,0 54.66001,0.0222 58.16867,-6.38484 1.55489,-2.83932 1.70595,-8.48095 1.70595,-63.71377 0,-65.58996 0.13765,-63.8706 -5.41544,-67.64478 -2.3668,-1.60861 -6.85751,-1.7806 -53.29979,-2.04138 l -50.71522,-0.28478 -0.28478,-50.71522 c -0.26078,-46.442275 -0.43277,-50.932975 -2.04138,-53.299775 -3.77589,-5.55561 -2.0122,-5.41545 -68.14513,-5.41545 -57.29387,0 -61.26413,0.11262 -63.76211,1.80857 -5.84455,3.96803 -5.83615,3.88444 -5.83615,58.066045 v 49.57237 l -50.92754,0.2765 c -49.901772,0.27094 -50.984382,0.31868 -53.749992,2.37017 -5.16328,3.83006 -5.20958,4.42909 -5.20958,67.40634 0,62.97725 0.0463,63.57628 5.20958,67.40634 2.76556,2.05145 3.84858,2.09923 53.723532,2.37012 l 50.90107,0.27647 0.27647,50.90107 c 0.27089,49.87495 0.31867,50.95798 2.37012,53.72354 1.15152,1.55235 3.62652,3.35956 5.5,4.01602 4.85659,1.70171 118.95609,1.70171 123.81268,0 z M 250.8314,342.2245 c 0.72187,-0.28887 1.58437,-0.25335 1.91667,0.0789 0.33229,0.33229 -0.25834,0.56864 -1.3125,0.52522 -1.16495,-0.048 -1.4019,-0.28494 -0.60417,-0.60416 z m 9,0 c 0.72187,-0.28887 1.58438,-0.25335 1.91667,0.0789 0.33229,0.33229 -0.25834,0.56864 -1.3125,0.52522 -1.16495,-0.048 -1.4019,-0.28494 -0.60417,-0.60416 z m -7.0625,-52.04029 c 1.7875,-0.22182 4.7125,-0.22182 6.5,0 1.7875,0.22183 0.325,0.40333 -3.25,0.40333 -3.575,0 -5.0375,-0.1815 -3.25,-0.40333 z m 37.32895,-62.85993 c 0.048,-1.16495 0.28494,-1.4019 0.60416,-0.60417 0.28887,0.72187 0.25335,1.58437 -0.0789,1.91667 -0.33229,0.33229 -0.56864,-0.25834 -0.52522,-1.3125 z M 251.7689,192.24533 c 0.6875,-0.27741 1.8125,-0.27741 2.5,0 0.6875,0.27741 0.125,0.50439 -1.25,0.50439 -1.375,0 -1.9375,-0.22698 -1.25,-0.50439 z m -0.9375,-23.02083 c 0.72187,-0.28887 1.58437,-0.25335 1.91667,0.0789 0.33229,0.33229 -0.25834,0.56864 -1.3125,0.52522 -1.16495,-0.048 -1.4019,-0.28494 -0.60417,-0.60416 z m 9,0 c 0.72187,-0.28887 1.58438,-0.25335 1.91667,0.0789 0.33229,0.33229 -0.25834,0.56864 -1.3125,0.52522 -1.16495,-0.048 -1.4019,-0.28494 -0.60417,-0.60416 z"
       id="path906" /><path
       style="fill:#fd819e"
       d="m 216.9228,422.15469 c -6.41348,-2.85042 -14.58078,-10.26882 -17.64594,-16.31763 -3.48725,-6.88176 -2.70558,-14.90982 -2.70558,-33.55166 0,-17.28342 0.59301,-20.73721 4.22654,-24.61613 3.54508,-3.78449 7.29989,-3.76421 17.27834,0.0933 14.35698,5.5502 23.33581,6.96628 40.38874,6.36983 24.95498,-0.87283 40.03444,-8.19388 63.74562,-26.52473 2.0182,-1.56025 4.18159,-3.29472 3.97126,-2.18073 l -0.1724,52.33169 c -0.32044,16.06955 -0.0456,37.49698 -0.97524,48.0834 l -44.87381,0.92314 c -47.25657,0.97216 -54.01405,-0.51118 -58.84895,-2.66001 z m 109.10827,-97.79373 c -6.7975,-18.97095 18.29793,-28.35838 22.51065,-42.94462 2.02123,-6.9984 3.52956,-9.70338 3.52956,-25.01238 0,-15.24419 -2.36402,-17.49683 -4.35913,-24.4656 -3.2754,-11.44076 -13.95375,-27.10789 -17.81086,-37.59331 l -8.43823,-8.87919 54.65929,-0.74696 c 54.38201,-0.74317 55.7167,-0.83505 58.85771,5.239 2.1981,4.25065 2.77419,124.15591 0.58332,129.39938 -2.76757,6.62372 -6.39815,8.63557 -61.5011,7.02192 -16.41339,-0.48066 -57.07732,0.79378 -48.57162,-1.66483 l 1.00098,0.93197 z M 112.6208,315.93917 c -8.01152,0.62002 -13.540255,-5.24956 -18.796425,-11.09569 -8.78808,-9.77446 -6.70251,-9.04622 -7.228333,-65.53893 l -0.487619,-52.38821 48.738387,-1.21905 h 52.88315 c 2.12586,2.06409 -6.40603,7.45873 -9.60904,11.1881 -7.94908,9.25535 -13.33102,24.5244 -16.64358,35.95667 -1.61073,5.55894 -3.76824,9.57358 -4.1469,20.39971 -0.59645,17.05293 2.28249,22.61843 7.83269,36.97541 3.85753,9.97845 3.87781,17.14659 0.0933,20.69167 -1.22908,1.15132 -1.3072,4.03615 -2.85551,4.62279 -3.85572,1.46089 -31.82635,-0.63224 -38.80871,0.65134 -1.76834,0.32508 -6.77087,-0.56889 -10.97141,-0.24381 z m 72.95048,-180.00146 c 0.51226,-54.446243 0.91794,-56.339508 6.94251,-59.454918 4.41198,-2.28152 123.60395,-0.818663 128.01593,1.462857 6.07405,3.14101 7.637,4.016582 5.72662,58.370101 l -0.25934,54.51647 -11.46012,-8.09343 c -9.12597,-6.445 -23.71444,-15.8555 -35.1552,-19.1309 -6.96877,-1.99511 -8.53181,-1.60074 -23.776,-1.60074 -15.309,0 -14.70882,-0.40032 -21.70722,1.62091 -14.58624,4.21272 -27.21287,28.87974 -46.33598,22.5229 l -2.47882,1.6141 z"
       id="path900" /><path
       style="fill:#ea5f80"
       d="m 192.20781,434.88886 c -6.38845,-2.77852 -6.31471,-2.10143 -6.31471,-57.98668 v -50.54966 h -50.54966 c -56.139545,0 -54.975083,-0.0259 -58.029105,-6.5343 -2.366994,-5.04432 -1.587481,-119.46447 -0.365714,-124.9314 0.653264,-2.9231 4.965382,-8.04494 8.973419,-7.99716 0.657853,0.008 0.986015,18.86244 1.177755,51.71286 l 0.29331,50.25 2.63517,5.62001 c 3.70468,7.90096 8.995725,13.32639 16.696255,17.12031 l 6.6162,3.25968 21.89731,0.32115 c 23.93436,0.35102 26.24852,-0.0371 29.77842,-4.9944 2.66408,-3.74135 2.18049,-8.44276 -2.02545,-19.69113 -19.30073,-51.61796 9.38078,-109.70639 62.42575,-126.43032 41.23722,-13.0012 86.24968,2.61936 110.5151,38.35178 25.67349,37.80588 21.48968,89.08846 -9.97872,122.3133 -26.73583,28.2281 -68.20107,37.99063 -104.19566,24.53171 -11.24837,-4.20594 -15.94978,-4.68953 -19.69113,-2.02545 -4.95729,3.5299 -5.34542,5.84406 -4.9944,29.77842 l 0.32115,21.89732 3.292,6.68184 c 3.75661,7.62487 9.05526,12.74874 17.208,16.64039 l 5.5,2.62539 50.25,0.29331 c 32.85042,0.19175 51.30519,0.0519 51.71286,0.56823 1.52135,1.92695 -3.24402,7.70093 -6.5343,9.09534 -4.95655,2.10057 -121.83443,2.15817 -126.61385,0.0795 z m 85.51166,-93.49275 c 30.56857,-8.73256 52.51383,-30.80716 61.39327,-61.75509 3.22367,-11.23563 3.22367,-33.34137 0,-44.577 -11.1797,-38.96515 -44.68763,-64.7115 -84.21964,-64.7115 -39.50474,0 -73.04765,25.77323 -84.21964,64.7115 -3.22367,11.23563 -3.22367,33.34137 0,44.577 9.73159,33.91799 35.57762,57.44145 70.0505,63.75565 8.00967,1.46708 28.79063,0.34334 36.99551,-2.00056 z"
       id="path896" /></g><g
     id="layer1"
     style="display:inline"
     transform="translate(-0.5527883,-0.4415055)"><g
       id="g1510"
       transform="matrix(1.105165,0,0,1.1320549,345.9462,5.7125435)"><path
         style="fill:#f9e6eb;stroke-width:0.233768"
         d="m -86.076203,278.40173 c 0.16738,-0.0623 0.44126,-0.0623 0.60863,0 0.16738,0.0623 0.0304,0.11323 -0.30431,0.11323 -0.33475,0 -0.47169,-0.051 -0.30432,-0.11323 z m 8.76427,0 c 0.16738,-0.0623 0.44126,-0.0623 0.60863,0 0.16737,0.0623 0.0304,0.11323 -0.30431,0.11323 -0.33475,0 -0.47169,-0.051 -0.30432,-0.11323 z m -46.583307,-15.17139 -0.46377,-0.50505 0.54777,0.42761 c 0.51476,0.40185 0.65859,0.5825 0.46377,0.5825 -0.0462,0 -0.29269,-0.22728 -0.54777,-0.50506 z m 84.622667,0.21885 c 0,-0.034 0.84904,-0.81679 1.88676,-1.73963 l 1.88675,-1.67791 -1.8198,1.73964 c -1.69019,1.61574 -1.95371,1.84206 -1.95371,1.6779 z m -88.148007,-3.47366 -0.59021,-0.61729 0.66949,0.54419 c 0.62575,0.50862 0.78114,0.6904 0.59021,0.6904 -0.0436,0 -0.34488,-0.27779 -0.66949,-0.6173 z m 93.017047,-1.26321 c 0,-0.0466 0.19172,-0.22338 0.42604,-0.39282 0.38613,-0.27922 0.39474,-0.27128 0.0919,0.0847 -0.31804,0.37391 -0.51796,0.49281 -0.51796,0.30807 z m -48.9947,-13.98103 c 0.16738,-0.0623 0.44126,-0.0623 0.60863,0 0.16738,0.0623 0.0304,0.11322 -0.30431,0.11322 -0.33475,0 -0.47169,-0.051 -0.30432,-0.11322 z m 3.40833,0 c 0.16737,-0.0623 0.44126,-0.0623 0.60863,0 0.16737,0.0623 0.0304,0.11322 -0.30431,0.11322 -0.33475,0 -0.47169,-0.051 -0.30432,-0.11322 z m -3.14966,-7.86111 c 0.17574,-0.0649 0.38572,-0.0569 0.46662,0.0177 0.0809,0.0746 -0.0629,0.12764 -0.31953,0.11789 -0.28361,-0.0108 -0.3413,-0.064 -0.14709,-0.13561 z m 3.16488,0 c 0.17574,-0.0649 0.38572,-0.0569 0.46661,0.0177 0.0809,0.0746 -0.0629,0.12764 -0.31953,0.11789 -0.28361,-0.0108 -0.34129,-0.064 -0.14708,-0.13561 z m -13.72084,-4.61665 -0.96236,-0.95399 1.03467,0.88731 c 0.96224,0.8252 1.14655,1.02068 0.96236,1.02068 -0.0398,0 -0.50538,-0.4293 -1.03467,-0.954 z m 24.35664,0.0561 c 0.523,-0.49383 1.00568,-0.89788 1.07263,-0.89788 0.0669,0 -0.30618,0.40405 -0.82918,0.89788 -0.52299,0.49383 -1.00567,0.89788 -1.07262,0.89788 -0.0669,0 0.30618,-0.40405 0.82917,-0.89788 z m 31.64875,-7.18303 -18.50234,-0.11647 18.42678,-0.054 18.42679,-0.054 0.0955,-0.84176 c 0.0875,-0.7712 0.0989,-0.75238 0.13643,0.22447 0.0225,0.58643 0.0135,1.04193 -0.0199,1.01223 -0.0335,-0.0297 -8.38692,-0.10641 -18.56321,-0.17047 z M -143.6165,224.81127 c -0.0722,-0.17344 -0.0863,-0.65324 -0.0313,-1.06623 0.0903,-0.67825 0.10369,-0.65874 0.13888,0.20168 l 0.039,0.95259 18.44148,0.059 18.44148,0.059 -18.44912,0.0547 c -15.65817,0.0464 -18.46898,0.007 -18.58036,-0.26065 z m 61.922437,0.16667 c 0.16737,-0.0623 0.44125,-0.0623 0.60863,0 0.16737,0.0623 0.0304,0.11322 -0.30432,0.11322 -0.33474,0 -0.47169,-0.051 -0.30431,-0.11322 z m -16.96155,-2.45144 c 0.0117,-0.2615 0.0694,-0.31469 0.14708,-0.13562 0.0703,0.16204 0.0617,0.35564 -0.0192,0.43023 -0.0809,0.0746 -0.13843,-0.058 -0.12786,-0.29461 z m 34.32672,0 c 0.0117,-0.2615 0.0694,-0.31469 0.14708,-0.13562 0.0703,0.16204 0.0617,0.35564 -0.0192,0.43023 -0.0809,0.0746 -0.13843,-0.058 -0.12786,-0.29461 z m -21.40455,-1.44035 c 0,-0.30865 0.0553,-0.43491 0.12279,-0.28059 0.0675,0.15432 0.0675,0.40685 0,0.56118 -0.0675,0.15432 -0.12279,0.0281 -0.12279,-0.28059 z m 8.52081,0 c 0,-0.30865 0.0553,-0.43491 0.1228,-0.28059 0.0675,0.15432 0.0675,0.40685 0,0.56118 -0.0675,0.15432 -0.1228,0.0281 -0.1228,-0.28059 z m -21.44298,-1.47776 c 0.0117,-0.26149 0.0694,-0.31468 0.14708,-0.13562 0.0703,0.16204 0.0617,0.35565 -0.0192,0.43024 -0.0809,0.0746 -0.13843,-0.058 -0.12786,-0.29462 z m 34.32672,0 c 0.0117,-0.26149 0.0694,-0.31468 0.14708,-0.13562 0.0703,0.16204 0.0617,0.35565 -0.0192,0.43024 -0.0809,0.0746 -0.13843,-0.058 -0.12786,-0.29462 z m -79.306617,-1.66482 c 0,-0.80248 0.0442,-1.13076 0.0982,-0.72952 0.054,0.40124 0.054,1.05781 0,1.45905 -0.054,0.40124 -0.0982,0.0729 -0.0982,-0.72953 z m 124.403917,0 c 0,-0.80248 0.0442,-1.13076 0.0982,-0.72952 0.054,0.40124 0.054,1.05781 0,1.45905 -0.054,0.40124 -0.0982,0.0729 -0.0982,-0.72953 z m -50.11874,-8.13702 -0.96236,-0.954 1.03467,0.88732 c 0.96224,0.8252 1.14655,1.02068 0.96236,1.02068 -0.0398,0 -0.50538,-0.4293 -1.03467,-0.954 z m -24.94237,0.65929 c 0,-0.0386 0.35605,-0.36692 0.79122,-0.72953 l 0.79122,-0.65929 -0.71504,0.72953 c -0.66652,0.68002 -0.8674,0.8327 -0.8674,0.65929 z m 11.15314,-5.2459 c 0.17574,-0.0649 0.38572,-0.0569 0.46662,0.0177 0.0809,0.0746 -0.0629,0.12764 -0.31953,0.11789 -0.28361,-0.0108 -0.3413,-0.064 -0.14709,-0.13561 z m 3.16488,0 c 0.17574,-0.0649 0.38572,-0.0569 0.46661,0.0177 0.0809,0.0746 -0.0629,0.12764 -0.31953,0.11789 -0.28361,-0.0108 -0.34129,-0.064 -0.14708,-0.13561 z m -2.20629,-7.86548 c 0.43517,-0.0498 1.14727,-0.0498 1.58244,0 0.43517,0.0498 0.0791,0.0905 -0.79122,0.0905 -0.87034,0 -1.22639,-0.0407 -0.79122,-0.0905 z m 46.54175,-15.26991 -0.5902,-0.61729 0.66949,0.54418 c 0.36823,0.2993 0.6695,0.57708 0.6695,0.61729 0,0.17605 -0.19715,0.0328 -0.74879,-0.54418 z m -91.641207,-0.0561 c 0.24235,-0.24692 0.49542,-0.44894 0.56236,-0.44894 0.0669,0 -0.0766,0.20202 -0.31891,0.44894 -0.24235,0.24692 -0.49542,0.44894 -0.56237,0.44894 -0.0669,0 0.0766,-0.20202 0.31892,-0.44894 z m 3.2866,-3.00285 c 0,-0.0466 0.19172,-0.22339 0.42604,-0.39283 0.38613,-0.27921 0.39474,-0.27127 0.0919,0.0847 -0.31804,0.37391 -0.51796,0.49282 -0.51796,0.30808 z m 84.690207,-0.30808 c -0.30282,-0.35602 -0.29421,-0.36396 0.0919,-0.0847 0.40553,0.29324 0.53449,0.47758 0.33412,0.47758 -0.0505,0 -0.24227,-0.17677 -0.42604,-0.39283 z"
         id="path892" /><path
         style="fill:#f7dbe2;stroke-width:0.233768"
         d="m -125.10468,262.108 -0.71504,-0.72953 0.79122,0.65929 c 0.73752,0.61455 0.90312,0.79976 0.71504,0.79976 -0.0419,0 -0.39795,-0.32829 -0.79122,-0.72952 z m -1.35472,-1.23459 c -0.30283,-0.35602 -0.29422,-0.36396 0.0919,-0.0847 0.23432,0.16944 0.42604,0.34621 0.42604,0.39282 0,0.18475 -0.19992,0.0658 -0.51795,-0.30807 z m 27.803787,-39.0203 c 0.0117,-0.2615 0.0694,-0.31469 0.14708,-0.13562 0.0703,0.16204 0.0617,0.35564 -0.0192,0.43023 -0.0809,0.0746 -0.13843,-0.058 -0.12786,-0.29461 z m 34.32672,0 c 0.0117,-0.2615 0.0694,-0.31469 0.14708,-0.13562 0.0703,0.16204 0.0617,0.35564 -0.0192,0.43023 -0.0809,0.0746 -0.13843,-0.058 -0.12786,-0.29461 z m -34.32672,-1.57129 c 0.0117,-0.2615 0.0694,-0.31468 0.14708,-0.13562 0.0703,0.16204 0.0617,0.35565 -0.0192,0.43024 -0.0809,0.0746 -0.13843,-0.058 -0.12786,-0.29462 z m 34.32672,0 c 0.0117,-0.2615 0.0694,-0.31468 0.14708,-0.13562 0.0703,0.16204 0.0617,0.35565 -0.0192,0.43024 -0.0809,0.0746 -0.13843,-0.058 -0.12786,-0.29462 z m -18.09553,-15.05719 c 0.16738,-0.0623 0.44126,-0.0623 0.60863,0 0.16737,0.0623 0.0304,0.11322 -0.30431,0.11322 -0.33475,0 -0.47169,-0.051 -0.30432,-0.11322 z m 1.46071,0 c 0.16738,-0.0623 0.44126,-0.0623 0.60863,0 0.16738,0.0623 0.0304,0.11322 -0.30431,0.11322 -0.33475,0 -0.47169,-0.051 -0.30432,-0.11322 z m 42.52009,-25.72146 -0.46377,-0.50506 0.54777,0.42761 c 0.51476,0.40185 0.65859,0.5825 0.46377,0.5825 -0.0462,0 -0.29269,-0.22727 -0.54777,-0.50505 z m -86.280567,0.19583 c 0,-0.0466 0.19172,-0.22338 0.42604,-0.39282 0.38613,-0.27921 0.39474,-0.27127 0.0919,0.0847 -0.31804,0.37391 -0.51796,0.49282 -0.51796,0.30807 z"
         id="path890" /><path
         style="fill:#f5d4dc;stroke-width:0.233768"
         d="m -84.600273,278.39706 c 0.17574,-0.0648 0.38572,-0.0569 0.46662,0.0177 0.0809,0.0746 -0.0629,0.12764 -0.31953,0.1179 -0.28361,-0.0108 -0.3413,-0.064 -0.14709,-0.13562 z m 6.0863,0 c 0.17574,-0.0648 0.38572,-0.0569 0.46662,0.0177 0.0809,0.0746 -0.0629,0.12764 -0.31954,0.1179 -0.2836,-0.0108 -0.34129,-0.064 -0.14708,-0.13562 z m 14.89621,-40.11148 c 0,-0.0466 0.19172,-0.22338 0.42604,-0.39282 0.38613,-0.27921 0.39474,-0.27127 0.0919,0.0848 -0.31804,0.37391 -0.51796,0.49282 -0.51796,0.30807 z m -18.19803,-1.4168 c 0.23432,-0.0565 0.61776,-0.0565 0.85208,0 0.23433,0.0565 0.0426,0.10266 -0.42604,0.10266 -0.46864,0 -0.66036,-0.0462 -0.42604,-0.10266 z m -16.8206,-15.78261 c 0,-0.30865 0.0553,-0.43491 0.12279,-0.28059 0.0675,0.15432 0.0675,0.40685 0,0.56118 -0.0675,0.15432 -0.12279,0.0281 -0.12279,-0.28059 z m 34.32671,0 c 0,-0.30865 0.0553,-0.43491 0.1228,-0.28059 0.0675,0.15432 0.0675,0.40685 0,0.56118 -0.0675,0.15432 -0.1228,0.0281 -0.1228,-0.28059 z m -20.48839,-2.55392 c 0,-0.0466 0.19171,-0.22338 0.42604,-0.39282 0.38613,-0.27921 0.39474,-0.27127 0.0919,0.0848 -0.31803,0.37391 -0.51795,0.49282 -0.51795,0.30807 z m 6.29869,-0.30807 c -0.30282,-0.35602 -0.29421,-0.36396 0.0919,-0.0848 0.40553,0.29324 0.53449,0.47757 0.33412,0.47757 -0.0505,0 -0.24227,-0.17677 -0.42604,-0.39282 z m -55.902017,-1.12226 c 5.05467,-0.0339 13.32595,-0.0339 18.38062,0 5.05467,0.0339 0.91903,0.0616 -9.19031,0.0616 -10.10934,0 -14.24498,-0.0277 -9.19031,-0.0616 z m 87.642687,0 c 5.05467,-0.0339 13.32595,-0.0339 18.38062,0 5.05467,0.0339 0.91903,0.0616 -9.19031,0.0616 -10.10934,0 -14.24498,-0.0277 -9.19031,-0.0616 z M -126.1849,181.06033 c 0,-0.0386 0.35605,-0.36691 0.79122,-0.72952 l 0.79122,-0.65929 -0.71504,0.72953 c -0.66652,0.68002 -0.8674,0.8327 -0.8674,0.65928 z m 88.585437,-0.77152 c -0.30282,-0.35602 -0.29421,-0.36396 0.0919,-0.0848 0.23432,0.16944 0.42604,0.34621 0.42604,0.39282 0,0.18475 -0.19992,0.0658 -0.51796,-0.30807 z"
         id="path888" /><path
         style="fill:#f3c9d3;stroke-width:0.233768"
         d="m -83.763403,278.39566 c 0.23432,-0.0565 0.61776,-0.0565 0.85208,0 0.23432,0.0565 0.0426,0.10266 -0.42604,0.10266 -0.46865,0 -0.66037,-0.0462 -0.42604,-0.10266 z m 3.89523,0 c 0.23432,-0.0565 0.61776,-0.0565 0.85208,0 0.23432,0.0565 0.0426,0.10266 -0.42604,0.10266 -0.46865,0 -0.66037,-0.0462 -0.42604,-0.10266 z m 44.61256,-18.92518 c 0.24235,-0.24692 0.49542,-0.44894 0.56237,-0.44894 0.067,0 -0.0766,0.20202 -0.31892,0.44894 -0.24235,0.24691 -0.49542,0.44894 -0.56237,0.44894 -0.067,0 0.0766,-0.20203 0.31892,-0.44894 z m -63.80753,-20.9318 -0.46377,-0.50505 0.54776,0.42761 c 0.51477,0.40185 0.6586,0.5825 0.46378,0.5825 -0.0462,0 -0.2927,-0.22728 -0.54777,-0.50506 z m 34.71503,0.42031 c 0,-0.0466 0.19171,-0.22338 0.42604,-0.39282 0.38613,-0.27921 0.39474,-0.27127 0.0919,0.0847 -0.31803,0.37391 -0.51795,0.49282 -0.51795,0.30807 z m -36.175737,-1.76712 -0.46378,-0.50506 0.54777,0.42761 c 0.514757,0.40185 0.658597,0.5825 0.463767,0.5825 -0.0462,0 -0.292687,-0.22727 -0.547757,-0.50505 z m 38.001627,0.0561 c 0.24235,-0.24691 0.49542,-0.44894 0.56236,-0.44894 0.067,0 -0.0766,0.20203 -0.31891,0.44894 -0.24236,0.24692 -0.49542,0.44894 -0.56237,0.44894 -0.0669,0 0.0766,-0.20202 0.31892,-0.44894 z"
         id="path886" /><path
         style="fill:#fd819e;fill-opacity:1;stroke-width:0.233768"
         d="m -85.284983,278.32386 c -19.852657,-1.22046 -37.500327,-10.73701 -48.356607,-26.0764 -4.26733,-6.02952 -7.31207,-12.91033 -8.82244,-19.93781 -0.50059,-2.32918 -1.00595,-5.68104 -1.00595,-6.67208 v -0.51095 h 18.2495 18.24951 l 0.26923,0.954 c 0.14807,0.5247 0.37662,1.3362 0.50788,1.80334 0.46362,1.64991 1.86475,4.39145 3.23479,6.3294 3.391297,4.79705 8.722897,8.33536 14.996117,9.95216 2.09979,0.54117 2.70518,0.59607 6.5732,0.59607 3.86802,0 4.47342,-0.0549 6.5732,-0.59607 3.0032,-0.77402 5.22344,-1.70805 7.7862,-3.2756 5.20598,-3.1843 9.30517,-8.53597 10.69864,-13.96754 l 0.43191,-1.68352 18.29745,-0.0575 18.29746,-0.0575 -0.14248,1.29212 c -1.06771,9.68329 -4.54476,18.63034 -10.34351,26.61569 -9.47724,13.0509 -23.99108,21.73274 -41.13044,24.60327 -3.84686,0.64428 -10.16285,0.94725 -14.36366,0.689 z m 0.041,-41.869 c -1.98332,-0.39694 -5.13581,-1.82143 -6.91652,-3.12533 -2.48139,-1.81696 -4.44727,-4.50888 -5.58069,-7.64173 -0.48343,-1.33623 -0.56847,-2.02462 -0.56847,-4.60163 0,-2.57701 0.085,-3.2654 0.56847,-4.60163 2.44952,-6.77067 8.83716,-11.11125 16.35144,-11.11125 7.52542,0 13.8983,4.33055 16.35145,11.11125 0.48342,1.33623 0.56846,2.02462 0.56846,4.60163 0,2.57701 -0.085,3.2654 -0.56846,4.60163 -1.13342,3.13285 -3.09931,5.82477 -5.58069,7.64173 -1.83157,1.34113 -4.93744,2.72644 -7.0285,3.13492 -2.06977,0.40432 -5.55028,0.39993 -7.59649,-0.01 z m 5.80916,-11.83329 c 3.19476,-1.48811 3.19476,-5.5827 0,-7.0708 -0.59636,-0.27778 -1.47608,-0.50505 -1.95493,-0.50505 -0.47885,0 -1.35857,0.22727 -1.95493,0.50505 -3.19475,1.4881 -3.19475,5.58269 0,7.0708 0.59636,0.27778 1.47608,0.50505 1.95493,0.50505 0.47885,0 1.35857,-0.22727 1.95493,-0.50505 z m -20.45727,-20.25839 c 0.31448,-0.30865 0.62655,-0.56117 0.6935,-0.56117 0.0669,0 -0.13557,0.25252 -0.45005,0.56117 -0.31448,0.30865 -0.626557,0.56117 -0.693507,0.56117 -0.0669,0 0.13558,-0.25252 0.450057,-0.56117 z m 36.62419,-0.16835 -0.71504,-0.72953 0.79122,0.65929 c 0.73753,0.61455 0.90312,0.79976 0.71504,0.79976 -0.0419,0 -0.39794,-0.32828 -0.79122,-0.72952 z m -21.34759,-40.49708 c 0.16738,-0.0623 0.44126,-0.0623 0.60863,0 0.16738,0.0623 0.0304,0.11322 -0.30431,0.11322 -0.33475,0 -0.47169,-0.051 -0.30432,-0.11322 z m 5.84285,0 c 0.16737,-0.0623 0.44126,-0.0623 0.60863,0 0.16737,0.0623 0.0304,0.11322 -0.30431,0.11322 -0.33475,0 -0.47169,-0.051 -0.30432,-0.11322 z"
         id="path884" /><path
         style="fill:#eda6b6;stroke-width:0.233768"
         d="m -62.188103,205.20494 c -0.30282,-0.35602 -0.29421,-0.36396 0.0919,-0.0848 0.40553,0.29324 0.53449,0.47757 0.33412,0.47757 -0.0506,0 -0.24227,-0.17677 -0.42604,-0.39282 z m -36.97364,-1.48768 c 0,-0.0466 0.19172,-0.22339 0.42604,-0.39283 0.38613,-0.27921 0.39474,-0.27127 0.0919,0.0848 -0.31804,0.37391 -0.51796,0.49282 -0.51796,0.30808 z m 34.78257,-0.53255 c -0.30282,-0.35602 -0.29421,-0.36396 0.0919,-0.0847 0.23432,0.16945 0.42604,0.34621 0.42604,0.39283 0,0.18474 -0.19992,0.0658 -0.51796,-0.30808 z m -63.144707,-20.70732 c 0.24235,-0.24692 0.49541,-0.44894 0.56236,-0.44894 0.0669,0 -0.0766,0.20202 -0.31891,0.44894 -0.24236,0.24692 -0.49542,0.44894 -0.56237,0.44894 -0.0669,0 0.0766,-0.20202 0.31892,-0.44894 z m 92.001687,-0.0561 -0.46378,-0.50505 0.54777,0.42761 c 0.51476,0.40185 0.6586,0.5825 0.46377,0.5825 -0.0462,0 -0.29269,-0.22728 -0.54776,-0.50506 z m -87.984737,-3.62014 c 0,-0.0466 0.19172,-0.22339 0.42604,-0.39283 0.38613,-0.27921 0.39474,-0.27127 0.0919,0.0848 -0.31804,0.37391 -0.51796,0.49282 -0.51796,0.30808 z m 83.716397,-0.30808 c -0.30282,-0.35602 -0.29421,-0.36396 0.0919,-0.0848 0.23432,0.16944 0.42604,0.34621 0.42604,0.39283 0,0.18474 -0.19992,0.0658 -0.51796,-0.30808 z m -43.60486,-14.8054 c 0.30284,-0.0537 0.74105,-0.0517 0.97381,0.005 0.23276,0.0562 -0.015,0.10011 -0.5506,0.0976 -0.5356,-0.002 -0.72604,-0.0485 -0.42321,-0.10215 z m 3.16488,0 c 0.30283,-0.0537 0.74104,-0.0517 0.97381,0.005 0.23276,0.0562 -0.015,0.10011 -0.55061,0.0976 -0.53559,-0.002 -0.72603,-0.0485 -0.4232,-0.10215 z"
         id="path882" /><path
         style="fill:#ea5f80;fill-opacity:1;stroke-width:0.233768"
         d="m -143.34239,215.86725 c 1.45373,-11.86701 5.98134,-22.11005 13.66737,-30.92038 8.67197,-9.94049 21.84389,-17.36602 35.431357,-19.97407 7.97073,-1.52994 17.33835,-1.56488 25.26996,-0.0942 11.56545,2.14441 22.90618,7.74974 31.28194,15.46159 10.52403,9.68983 16.51877,21.35675 18.25466,35.52709 l 0.14436,1.17847 h -18.25789 -18.2579 l -0.266,-0.954 c -1.05555,-3.78567 -1.9438,-5.6952 -3.89859,-8.38112 -3.39378,-4.6631 -8.67007,-8.12326 -14.77441,-9.68895 -2.17539,-0.55796 -2.75104,-0.6109 -6.64222,-0.6109 -3.88042,0 -4.47052,0.0539 -6.61617,0.60451 -4.51318,1.15813 -8.42773,3.24327 -11.62193,6.19058 -3.659357,3.37651 -5.983437,7.33154 -7.182317,12.22258 l -0.1513,0.6173 h -18.26265 -18.26264 z"
         id="path880" /></g></g></svg>
